<?xml version="1.0" standalone="no"?>
<!DOCTYPE svg PUBLIC "-//W3C//DTD SVG 20010904//EN"
 "http://www.w3.org/TR/2001/REC-SVG-20010904/DTD/svg10.dtd">
<svg version="1.0" xmlns="http://www.w3.org/2000/svg"
 width="1080.000000pt" height="1080.000000pt" viewBox="0 0 1080.000000 1080.000000"
 preserveAspectRatio="xMidYMid meet">
<g transform="translate(0.000000,1080.000000) scale(0.100000,-0.100000)"
fill="#000000" stroke="none">
<path d="M2828 9493 c-38 -2 -68 -8 -68 -12 0 -15 -54 -29 -134 -35 -58 -3
-84 -10 -100 -24 -11 -11 -43 -22 -71 -26 -27 -3 -62 -15 -77 -26 -14 -10 -47
-24 -71 -31 -25 -6 -48 -17 -50 -23 -3 -7 -26 -19 -50 -26 -25 -7 -48 -18 -51
-25 -2 -7 -22 -19 -43 -26 -21 -6 -44 -20 -51 -31 -7 -10 -22 -18 -32 -18 -11
0 -27 -11 -36 -25 -9 -14 -22 -25 -28 -25 -7 0 -23 -11 -35 -24 -13 -14 -36
-30 -52 -36 -15 -7 -31 -20 -34 -31 -3 -10 -15 -21 -25 -24 -10 -3 -22 -14
-25 -24 -3 -10 -17 -23 -30 -29 -14 -6 -25 -18 -25 -26 0 -8 -9 -17 -19 -21
-10 -3 -24 -19 -31 -34 -6 -16 -22 -39 -36 -52 -13 -12 -24 -28 -24 -35 0 -6
-11 -19 -25 -28 -14 -9 -25 -24 -25 -34 0 -9 -12 -28 -25 -41 -14 -13 -25 -34
-25 -46 0 -13 -9 -30 -19 -37 -10 -8 -24 -32 -30 -55 -6 -22 -17 -46 -25 -52
-8 -6 -19 -33 -26 -59 -6 -26 -20 -60 -30 -77 -9 -16 -21 -55 -24 -85 -4 -30
-16 -69 -27 -87 -16 -26 -22 -60 -28 -163 -7 -106 -12 -134 -27 -151 -18 -20
-19 -40 -19 -299 0 -264 1 -279 20 -300 17 -19 21 -40 25 -139 4 -95 9 -122
26 -151 13 -21 25 -62 29 -100 4 -37 16 -80 28 -99 11 -18 24 -54 28 -78 5
-25 16 -51 24 -57 9 -6 18 -29 22 -51 3 -23 16 -50 30 -62 14 -14 23 -34 23
-52 0 -20 7 -34 20 -41 10 -6 28 -30 39 -55 11 -25 25 -45 30 -45 6 0 11 -7
11 -15 0 -8 13 -28 30 -45 16 -17 30 -35 30 -40 0 -5 21 -30 46 -57 26 -26 51
-60 56 -75 6 -16 15 -28 21 -28 6 0 32 -23 58 -50 26 -28 50 -50 54 -50 10 0
125 -92 125 -100 0 -4 11 -11 24 -14 14 -3 27 -15 31 -25 3 -10 18 -21 35 -24
15 -4 37 -15 47 -25 10 -11 28 -23 41 -26 12 -4 26 -16 32 -26 5 -10 26 -21
47 -25 20 -4 50 -18 66 -31 16 -13 39 -24 53 -24 14 0 30 -10 40 -25 12 -19
25 -25 51 -25 35 0 93 -24 93 -39 0 -4 22 -11 50 -14 27 -3 62 -15 77 -25 16
-11 52 -23 81 -26 29 -3 68 -14 85 -25 20 -12 64 -23 120 -29 67 -8 94 -15
111 -31 17 -16 35 -21 73 -21 78 0 91 -16 99 -125 4 -57 13 -104 25 -127 10
-21 21 -68 25 -105 4 -44 13 -78 26 -97 12 -16 23 -50 26 -75 2 -25 10 -50 16
-56 21 -17 36 -52 36 -83 0 -18 10 -37 25 -52 14 -13 25 -31 25 -40 0 -9 13
-37 30 -61 16 -24 30 -48 30 -53 0 -4 11 -21 25 -38 14 -16 25 -38 25 -48 0
-10 11 -25 25 -34 14 -9 25 -25 25 -36 0 -11 7 -20 15 -20 8 0 19 -9 25 -20 6
-11 20 -30 33 -43 120 -128 160 -168 202 -202 26 -22 61 -52 76 -67 15 -16 32
-28 38 -28 6 0 18 -11 26 -24 10 -14 30 -27 50 -30 19 -4 39 -16 45 -26 6 -11
18 -20 26 -20 9 0 29 -11 46 -25 16 -14 37 -25 46 -25 9 0 37 -14 61 -30 24
-17 54 -30 67 -30 12 0 36 -11 52 -25 20 -17 42 -25 66 -25 27 0 44 -7 60 -25
18 -19 33 -25 67 -25 53 0 104 -14 123 -33 9 -9 47 -16 100 -20 54 -4 104 -14
133 -27 43 -19 73 -21 313 -27 227 -5 269 -8 295 -23 22 -13 61 -19 138 -23
62 -3 114 -10 120 -16 8 -8 14 -85 17 -230 4 -185 8 -222 22 -237 11 -14 20
-55 28 -139 8 -78 18 -126 27 -137 9 -9 20 -55 27 -101 7 -52 17 -90 28 -100
9 -10 20 -42 24 -74 4 -37 13 -62 26 -73 10 -8 21 -33 25 -55 3 -22 17 -53 30
-68 12 -16 23 -37 23 -46 0 -10 11 -30 25 -45 14 -15 28 -39 32 -54 3 -15 15
-33 25 -40 10 -7 18 -19 18 -26 0 -7 11 -22 25 -34 13 -12 28 -34 31 -49 4
-15 18 -36 31 -46 13 -10 23 -25 23 -32 0 -8 8 -16 18 -19 11 -4 25 -18 32
-31 7 -14 19 -25 27 -25 7 0 18 -11 23 -25 5 -14 16 -25 25 -25 9 0 20 -11 25
-25 5 -14 16 -25 24 -25 8 0 21 -8 28 -18 7 -10 27 -27 44 -37 17 -11 47 -31
68 -44 20 -13 41 -32 47 -42 5 -11 18 -19 29 -19 10 0 32 -11 48 -25 17 -14
38 -25 47 -25 9 0 30 -11 47 -25 16 -14 40 -25 52 -25 13 0 39 -11 58 -24 19
-13 56 -26 81 -30 26 -4 54 -14 62 -23 10 -9 54 -20 116 -28 68 -9 107 -19
120 -31 19 -17 45 -18 329 -18 284 1 311 2 337 19 19 13 63 23 136 31 74 8
113 16 126 28 11 10 44 20 77 23 41 4 68 13 87 29 16 13 40 24 55 24 14 0 36
10 48 21 13 12 44 25 71 30 30 6 53 17 62 29 7 11 21 20 31 20 9 0 25 9 36 21
10 11 33 27 50 34 31 13 42 21 98 71 15 13 30 24 35 24 7 0 71 53 99 82 30 32
129 142 152 170 14 17 37 44 52 60 15 16 30 42 33 58 3 15 15 36 26 46 10 9
19 23 19 30 0 7 11 25 24 41 13 15 26 42 30 59 4 18 16 40 26 49 10 9 21 38
25 66 4 29 14 54 24 62 12 8 20 32 25 77 4 36 16 80 26 98 14 23 22 66 29 155
7 85 17 138 31 168 18 40 20 65 20 305 0 247 -1 262 -20 284 -11 13 -20 23
-20 24 -1 1 -5 59 -10 129 -6 98 -12 133 -25 147 -10 11 -22 52 -29 99 -7 48
-18 86 -29 99 -10 10 -20 42 -24 70 -4 36 -10 52 -23 55 -12 3 -20 19 -25 48
-4 24 -18 57 -31 72 -13 16 -24 38 -24 49 0 11 -11 31 -25 44 -13 12 -27 34
-31 49 -4 15 -16 37 -28 50 -52 58 -68 82 -73 109 -4 17 -14 31 -25 34 -11 2
-24 15 -29 28 -4 13 -15 24 -24 24 -8 0 -17 11 -21 24 -3 13 -16 28 -29 34
-13 6 -26 20 -30 31 -3 12 -13 21 -20 21 -8 0 -20 8 -27 18 -7 11 -23 24 -35
31 -13 6 -23 21 -23 31 0 13 -7 20 -19 20 -18 0 -70 35 -124 85 -15 14 -34 25
-42 25 -7 0 -16 8 -19 18 -4 11 -24 23 -50 30 -29 8 -47 18 -51 32 -4 13 -15
20 -30 20 -13 0 -37 11 -53 25 -17 14 -37 25 -47 25 -19 0 -56 18 -70 35 -5 7
-27 15 -48 18 -20 3 -49 15 -63 26 -14 11 -45 23 -69 27 -24 3 -59 17 -76 30
-24 18 -46 24 -81 24 -38 0 -54 5 -73 24 -20 20 -36 24 -104 28 -65 4 -86 9
-104 26 -19 18 -35 22 -91 22 -81 0 -122 18 -130 57 -3 16 -8 66 -12 113 -4
56 -12 91 -22 103 -10 11 -19 48 -23 94 -6 54 -13 81 -27 97 -12 12 -23 43
-27 73 -4 29 -15 63 -25 76 -11 13 -24 44 -30 70 -7 25 -18 48 -26 51 -7 3
-19 26 -25 51 -6 26 -20 50 -30 56 -11 5 -19 18 -19 28 0 10 -11 31 -25 47
-14 16 -25 37 -25 46 0 10 -11 25 -25 34 -14 9 -25 21 -25 26 0 32 -209 252
-320 338 -40 30 -82 65 -94 78 -13 12 -28 22 -33 22 -6 0 -17 7 -24 17 -8 9
-34 25 -59 36 -25 11 -49 26 -55 33 -5 7 -26 17 -45 21 -21 6 -39 18 -45 31
-7 16 -18 22 -41 22 -17 0 -43 9 -57 20 -14 11 -49 25 -78 30 -29 6 -62 19
-74 30 -12 11 -35 20 -51 20 -40 0 -91 16 -109 33 -9 9 -45 18 -92 22 -56 5
-88 13 -113 30 -33 21 -49 23 -238 29 -183 5 -206 8 -229 26 -24 19 -40 20
-243 20 -190 0 -219 2 -231 17 -11 12 -15 69 -19 227 -4 177 -8 215 -22 236
-13 19 -19 57 -24 140 -6 92 -12 124 -31 159 -16 31 -23 61 -23 99 0 43 -5 60
-25 84 -18 22 -25 41 -25 74 0 34 -5 49 -24 65 -13 12 -27 36 -31 55 -3 19
-17 51 -31 71 -13 20 -24 46 -24 59 0 13 -6 27 -14 31 -18 11 -36 47 -36 72 0
11 -9 22 -19 26 -11 3 -23 16 -27 28 -7 22 -37 63 -81 113 -13 14 -23 28 -23
32 0 7 -6 13 -118 124 -112 113 -117 118 -126 118 -5 0 -19 10 -31 23 -20 20
-49 40 -114 76 -15 8 -30 20 -36 26 -5 7 -26 18 -45 25 -19 8 -40 21 -47 31
-7 9 -31 19 -54 22 -23 3 -49 14 -60 26 -12 13 -38 23 -71 27 -31 4 -59 15
-71 27 -15 15 -40 22 -99 27 -55 5 -84 13 -99 26 -20 18 -42 19 -337 20 -175
1 -347 -1 -384 -3z m650 -112 c40 -5 81 -16 90 -24 9 -8 44 -18 77 -22 60 -7
94 -20 106 -37 3 -5 26 -12 50 -15 73 -9 79 -16 79 -82 0 -48 -4 -63 -25 -85
-13 -15 -30 -37 -36 -49 -7 -12 -20 -28 -31 -35 -10 -7 -18 -19 -18 -26 0 -7
-11 -26 -25 -42 -14 -16 -25 -39 -25 -52 0 -13 -11 -34 -24 -46 -14 -14 -25
-41 -29 -66 -3 -23 -14 -52 -25 -63 -11 -12 -22 -44 -26 -70 -3 -26 -17 -64
-31 -85 -14 -20 -25 -42 -25 -48 0 -30 -65 -31 -81 -1 -7 12 -20 31 -29 42
-33 37 -199 200 -230 225 -17 14 -40 33 -51 43 -11 10 -35 25 -53 32 -17 7
-40 23 -50 34 -11 12 -25 21 -32 21 -7 0 -19 8 -26 19 -7 10 -30 23 -50 29
-19 5 -45 19 -57 31 -12 12 -34 21 -51 21 -17 0 -39 9 -50 20 -11 11 -47 26
-81 34 -34 8 -66 21 -70 29 -6 10 -34 17 -91 22 -86 7 -146 34 -169 77 -8 15
2 58 15 58 30 0 125 26 145 40 16 11 54 21 101 25 45 4 82 13 92 22 11 10 48
18 100 23 118 10 549 11 636 1z m640 -262 c12 -5 22 -12 22 -17 0 -5 18 -17
39 -27 22 -9 49 -27 60 -39 23 -24 40 -41 59 -59 44 -40 131 -137 172 -191 51
-67 54 -173 6 -211 -14 -12 -26 -28 -26 -37 0 -9 -11 -30 -25 -46 -14 -17 -25
-37 -25 -45 0 -9 -11 -29 -25 -45 -14 -17 -25 -40 -25 -51 0 -28 -26 -91 -38
-91 -6 0 -13 -20 -16 -44 -4 -24 -15 -54 -25 -65 -11 -12 -24 -49 -30 -83 -6
-33 -18 -70 -28 -80 -12 -14 -20 -45 -24 -105 -5 -64 -12 -92 -28 -114 -19
-26 -21 -42 -22 -176 -1 -182 -9 -251 -34 -269 -27 -20 -323 -20 -351 0 -18
13 -19 30 -22 251 -3 224 -4 239 -24 266 -18 24 -22 47 -26 140 -4 100 -7 113
-28 134 -23 23 -24 31 -24 145 0 119 8 156 36 173 9 5 14 26 14 57 0 53 13 97
34 114 8 6 16 36 20 66 3 36 12 60 24 70 11 9 22 32 26 52 3 19 18 48 31 62
14 15 25 35 25 46 0 10 11 32 25 48 14 17 25 35 25 40 0 6 11 19 25 30 14 11
25 26 25 34 0 16 57 73 80 81 17 5 63 -1 98 -14z m-1646 -72 c15 -11 60 -23
99 -28 47 -6 80 -16 93 -28 12 -10 40 -22 64 -26 25 -4 46 -14 52 -25 6 -11
27 -21 50 -25 22 -4 46 -15 53 -25 6 -9 27 -21 45 -25 19 -4 43 -18 55 -31 11
-13 26 -24 32 -24 7 0 20 -9 30 -20 10 -11 33 -25 51 -32 19 -7 36 -20 39 -29
4 -10 15 -21 26 -24 11 -4 27 -17 35 -31 9 -13 21 -24 26 -24 13 0 78 -65 78
-79 0 -6 11 -17 25 -23 13 -6 27 -19 31 -30 3 -10 16 -30 30 -43 13 -13 24
-33 24 -44 0 -11 11 -31 25 -45 16 -16 25 -36 25 -55 0 -19 8 -35 22 -45 16
-11 23 -31 29 -76 5 -33 18 -73 29 -88 15 -20 21 -50 26 -117 4 -57 14 -107
27 -135 17 -39 21 -72 25 -236 5 -227 -2 -264 -50 -264 -18 0 -39 6 -47 14 -9
7 -39 21 -67 30 -29 9 -60 26 -69 36 -10 11 -27 20 -37 20 -11 0 -23 11 -28
25 -5 14 -16 25 -24 25 -9 0 -20 9 -26 20 -6 11 -22 31 -35 44 -14 14 -25 36
-25 49 0 13 -11 33 -25 45 -14 12 -25 27 -25 33 0 6 -11 25 -25 43 -14 18 -25
39 -25 45 0 7 -12 25 -27 40 -16 16 -39 42 -53 60 -14 17 -38 43 -54 59 -17
15 -44 41 -62 57 -18 17 -46 41 -63 55 -17 14 -41 33 -52 43 -11 10 -36 25
-55 33 -19 8 -43 23 -54 34 -11 11 -31 20 -45 20 -14 0 -34 11 -47 25 -16 18
-32 25 -58 25 -23 0 -48 8 -65 22 -22 17 -48 23 -134 30 -70 6 -120 15 -147
28 -50 24 -128 26 -169 4 -17 -9 -85 -23 -154 -30 -91 -11 -127 -19 -136 -31
-7 -9 -35 -19 -67 -23 -36 -5 -64 -16 -77 -29 -28 -28 -77 -28 -92 1 -16 30
-4 116 19 142 11 12 22 41 25 66 3 27 13 51 25 60 10 9 22 32 26 53 4 20 14
44 24 53 9 10 24 34 34 56 9 21 22 38 28 38 6 0 16 14 22 30 5 17 19 35 29 41
10 5 19 16 19 25 0 8 11 20 25 26 14 6 25 18 25 26 0 21 139 161 183 183 20
11 37 23 37 28 0 17 34 20 230 18 171 -2 198 -4 222 -20z m2176 -559 c7 -7 12
-21 12 -33 0 -12 11 -36 25 -55 14 -19 25 -47 25 -65 0 -20 9 -42 24 -58 18
-19 25 -42 31 -94 4 -40 15 -82 28 -102 16 -26 21 -56 25 -135 3 -69 9 -106
19 -118 8 -9 19 -47 24 -85 10 -77 12 -393 3 -417 -5 -14 -42 -16 -305 -16
l-299 0 -6 25 c-3 14 -5 109 -3 212 4 174 6 191 27 224 12 21 22 53 22 75 1
53 16 125 27 133 19 12 33 50 33 86 0 24 8 43 24 60 16 16 25 38 28 76 4 36
12 57 26 68 11 9 23 32 26 52 4 20 15 44 26 54 10 9 22 30 25 46 13 57 99 101
133 67z m-2381 -280 c12 -12 36 -18 64 -18 61 -1 121 -16 135 -34 6 -9 21 -16
33 -16 29 0 91 -27 91 -39 0 -6 16 -13 35 -17 20 -3 41 -14 48 -24 7 -10 32
-26 55 -35 23 -10 42 -21 42 -26 0 -5 14 -15 30 -24 17 -9 30 -22 30 -30 0 -8
4 -15 9 -15 13 0 101 -85 101 -98 0 -6 9 -13 19 -17 11 -3 23 -16 27 -28 4
-12 17 -35 30 -50 29 -34 33 -101 8 -111 -9 -3 -77 -6 -152 -6 -117 0 -144 -4
-182 -21 -29 -13 -79 -23 -140 -28 -66 -5 -104 -13 -124 -26 -15 -10 -53 -22
-83 -26 -34 -5 -64 -16 -77 -28 -13 -12 -36 -21 -53 -21 -19 0 -43 -10 -61
-25 -17 -14 -44 -28 -62 -31 -18 -4 -43 -17 -56 -30 -14 -15 -35 -24 -53 -24
-21 0 -32 -6 -36 -19 -3 -11 -21 -25 -39 -31 -19 -6 -42 -20 -51 -30 -10 -11
-26 -20 -37 -20 -10 0 -24 -11 -30 -25 -6 -14 -16 -25 -21 -25 -12 0 -62 -43
-153 -131 -56 -54 -78 -69 -101 -69 -51 0 -65 27 -75 147 -7 76 -15 113 -26
127 -15 16 -17 54 -17 336 0 318 0 319 23 340 12 11 22 25 22 30 0 11 116 90
133 90 7 0 23 11 34 24 12 14 37 26 62 30 24 3 55 15 69 26 18 14 51 22 97 27
46 4 79 13 95 25 22 17 39 19 171 16 123 -2 150 -6 166 -20z m715 -735 c7 -16
21 -41 32 -57 10 -15 23 -48 27 -72 5 -24 17 -52 28 -63 10 -10 22 -33 26 -50
4 -18 18 -43 31 -56 13 -13 24 -33 24 -45 0 -11 11 -30 25 -42 14 -12 25 -30
25 -40 0 -10 7 -18 15 -18 8 0 20 -11 27 -24 23 -43 354 -373 399 -396 10 -6
19 -17 19 -26 0 -8 8 -18 17 -21 10 -4 39 -29 65 -55 26 -26 52 -48 58 -48 6
0 16 -11 22 -25 6 -14 17 -25 25 -25 7 0 18 -11 24 -24 6 -13 20 -27 31 -29
11 -3 22 -15 25 -26 3 -12 14 -21 24 -21 11 0 24 -11 30 -24 6 -13 20 -27 31
-29 11 -3 22 -15 25 -26 3 -12 12 -21 20 -21 9 0 68 -50 132 -110 64 -61 125
-119 136 -129 48 -46 171 -185 180 -205 5 -11 17 -27 26 -33 9 -7 20 -24 23
-38 4 -14 11 -25 17 -25 30 0 53 -142 27 -168 -9 -9 -106 -12 -373 -12 -341 0
-363 1 -384 19 -12 10 -38 22 -59 26 -20 3 -48 17 -62 29 -14 13 -37 26 -52
30 -15 3 -30 15 -33 26 -3 11 -15 20 -25 20 -11 0 -27 11 -36 25 -9 14 -20 25
-25 25 -11 0 -57 42 -213 196 -67 67 -132 125 -144 128 -11 4 -24 16 -27 26
-3 10 -15 22 -25 25 -10 3 -22 15 -25 25 -3 10 -15 22 -26 25 -10 4 -19 11
-19 16 0 7 -57 66 -152 156 -7 6 -49 50 -93 98 -44 47 -102 109 -128 138 -27
29 -55 64 -63 80 -8 15 -19 27 -25 27 -5 0 -15 14 -20 30 -6 17 -17 30 -25 30
-8 0 -20 12 -27 27 -6 15 -22 37 -34 50 -13 12 -23 32 -23 43 0 13 -8 24 -20
27 -10 3 -22 15 -26 27 -4 11 -17 34 -30 49 -13 16 -24 37 -24 47 0 11 -11 31
-25 46 -13 14 -28 43 -31 62 -4 20 -16 43 -27 52 -15 13 -21 33 -25 91 -2 41
-9 77 -15 80 -12 8 20 96 38 103 7 2 34 8 61 12 27 4 60 15 74 25 17 13 51 21
105 25 44 4 87 12 95 19 26 21 42 23 193 24 l147 1 12 -27z m251 -53 c9 -11
23 -20 32 -20 8 0 22 -11 30 -24 9 -13 29 -26 45 -30 16 -3 39 -15 50 -26 11
-11 29 -20 39 -20 27 0 72 -18 85 -34 6 -8 42 -16 86 -20 48 -4 84 -13 100
-25 18 -13 51 -19 118 -24 69 -4 103 -11 129 -27 19 -11 55 -23 80 -27 24 -3
50 -11 56 -18 19 -19 49 -32 89 -39 21 -4 43 -15 50 -25 7 -10 26 -21 42 -25
16 -4 43 -18 59 -32 16 -13 33 -24 39 -24 6 0 20 -9 32 -21 12 -11 46 -40 76
-62 68 -51 82 -63 126 -104 19 -18 39 -33 44 -33 6 0 10 -7 10 -15 0 -8 72
-87 160 -176 88 -90 162 -170 165 -180 3 -9 17 -24 30 -33 14 -9 25 -23 25
-30 0 -8 9 -16 21 -19 11 -3 23 -15 26 -26 3 -12 11 -21 19 -21 7 0 19 -10 25
-22 7 -13 34 -43 61 -69 26 -25 48 -49 48 -53 0 -4 12 -20 28 -36 37 -38 82
-101 82 -116 0 -7 9 -16 20 -19 11 -3 23 -17 26 -30 3 -13 13 -27 22 -30 18
-6 50 -49 79 -104 10 -19 28 -45 41 -57 12 -13 22 -28 22 -34 0 -5 9 -19 19
-29 25 -25 36 -84 25 -130 l-9 -36 -398 -3 -397 -2 -9 22 c-5 13 -18 31 -30
40 -11 9 -23 34 -27 55 -4 21 -17 51 -30 66 -13 16 -24 37 -24 47 0 11 -9 24
-20 30 -11 6 -23 22 -26 35 -3 14 -10 25 -14 25 -5 0 -19 17 -31 38 -25 41
-35 52 -114 133 -30 31 -55 61 -55 66 0 6 -9 13 -21 16 -11 3 -23 15 -26 26
-3 12 -12 21 -19 21 -8 0 -50 35 -93 78 -44 42 -95 91 -115 107 -66 56 -93 80
-154 138 -34 31 -66 57 -71 57 -5 0 -12 9 -16 19 -3 11 -15 23 -25 26 -10 3
-22 15 -25 26 -4 10 -13 19 -20 19 -8 0 -22 11 -31 25 -9 13 -24 27 -33 30
-10 3 -23 17 -29 30 -6 14 -18 25 -27 25 -8 0 -17 11 -21 25 -4 15 -13 25 -24
25 -10 0 -25 11 -34 25 -9 14 -23 25 -31 25 -7 0 -17 9 -20 21 -4 11 -18 24
-31 29 -13 5 -24 16 -24 23 0 8 -11 19 -25 25 -14 6 -25 19 -25 27 0 8 -11 21
-25 27 -14 6 -25 17 -25 25 0 7 -11 19 -25 25 -13 6 -27 19 -30 30 -4 10 -15
23 -26 28 -10 6 -19 17 -19 24 0 7 -13 27 -30 44 -16 18 -30 40 -30 50 0 10
-11 28 -25 40 -14 12 -25 31 -25 43 0 12 -11 34 -25 51 -27 32 -32 67 -14 101
22 41 38 45 62 17z m-1106 -138 c17 -11 33 -58 33 -100 0 -22 8 -44 20 -57 11
-12 24 -43 29 -69 5 -26 18 -56 30 -67 11 -11 21 -27 21 -35 0 -9 11 -29 25
-46 14 -16 25 -38 25 -49 0 -10 11 -26 24 -34 13 -9 27 -27 30 -40 3 -13 17
-36 31 -51 14 -15 25 -32 25 -39 0 -7 11 -20 25 -29 14 -9 25 -21 25 -28 0 -6
10 -21 23 -33 12 -13 36 -42 52 -64 17 -23 54 -67 83 -99 28 -31 52 -62 52
-68 0 -6 11 -16 25 -22 14 -6 25 -18 25 -25 0 -8 11 -19 25 -25 14 -6 25 -16
25 -22 0 -13 175 -190 188 -190 6 0 13 -8 17 -18 3 -11 17 -24 30 -30 14 -6
25 -18 25 -27 0 -8 4 -15 10 -15 12 0 100 -87 100 -99 0 -5 9 -11 21 -14 11
-3 23 -15 26 -26 3 -11 14 -23 24 -26 11 -4 24 -15 29 -26 6 -10 16 -19 22
-19 13 0 132 -121 141 -143 3 -10 13 -17 20 -17 28 0 67 -41 67 -69 0 -58 -61
-84 -121 -52 -25 13 -68 20 -162 26 -107 6 -135 11 -173 31 -34 18 -61 24
-108 24 -51 0 -68 5 -96 25 -22 16 -47 25 -70 25 -21 0 -57 11 -82 24 -25 13
-64 27 -86 31 -25 4 -46 14 -52 25 -6 10 -26 21 -49 25 -22 3 -49 17 -62 31
-12 13 -33 24 -46 24 -13 0 -35 11 -49 25 -14 14 -31 25 -38 25 -7 0 -25 11
-40 25 -15 14 -33 25 -41 25 -8 0 -28 12 -44 28 -16 15 -50 42 -75 61 -25 18
-46 39 -46 47 0 7 -11 16 -24 20 -14 3 -50 34 -81 67 -30 34 -67 73 -80 87
-14 14 -25 31 -25 37 0 6 -9 15 -20 18 -11 3 -20 12 -20 19 0 7 -13 27 -30 44
-16 18 -30 37 -30 43 0 6 -11 24 -25 41 -14 16 -25 36 -25 43 0 8 -9 20 -21
28 -11 9 -25 34 -30 58 -6 23 -18 49 -28 56 -10 7 -22 29 -26 50 -4 21 -15 46
-25 55 -9 9 -20 32 -24 52 -9 45 10 116 29 116 8 0 15 7 15 15 0 9 11 27 25
41 13 13 29 33 35 44 6 11 17 20 25 20 7 0 17 9 20 20 3 11 17 23 30 26 13 3
25 14 28 25 3 10 13 22 24 26 10 4 30 18 45 32 54 53 65 61 100 75 19 9 38 22
41 30 3 8 19 17 35 21 17 3 47 15 68 26 43 21 44 22 61 11z m2945 -112 c20
-10 59 -22 87 -26 29 -4 64 -17 83 -30 17 -13 41 -24 53 -24 12 0 32 -11 44
-24 13 -13 38 -27 57 -31 19 -3 38 -13 41 -21 3 -8 25 -23 49 -33 24 -11 44
-24 44 -29 0 -5 14 -15 30 -22 17 -7 30 -19 30 -27 0 -8 13 -19 30 -24 16 -6
32 -19 35 -30 4 -10 13 -19 21 -19 8 0 19 -11 25 -24 7 -14 21 -27 34 -30 12
-3 45 -32 73 -63 29 -32 66 -73 82 -91 17 -18 30 -37 30 -42 0 -6 7 -10 15
-10 9 0 20 -11 25 -24 5 -14 18 -30 29 -35 11 -6 22 -20 26 -30 3 -11 15 -23
26 -26 10 -4 19 -13 19 -20 0 -8 11 -22 25 -31 14 -9 25 -21 25 -28 0 -11 49
-72 94 -116 14 -14 26 -31 26 -37 0 -6 7 -13 15 -17 8 -3 20 -17 27 -31 6 -13
19 -27 29 -30 9 -3 20 -17 23 -30 4 -14 13 -25 21 -25 7 0 20 -11 27 -24 25
-45 73 -111 90 -124 10 -7 18 -20 18 -28 0 -8 11 -24 25 -35 13 -12 27 -35 31
-52 3 -17 15 -38 26 -46 11 -10 22 -34 25 -61 4 -25 16 -58 27 -73 27 -36 27
-108 1 -137 -18 -19 -31 -20 -431 -20 l-412 0 -25 30 c-14 16 -28 48 -32 71
-4 23 -18 57 -31 77 -13 19 -24 42 -24 52 0 9 -11 26 -24 37 -13 11 -26 37
-30 57 -4 22 -13 36 -22 36 -8 0 -19 11 -24 24 -5 13 -16 28 -25 34 -9 5 -22
18 -28 29 -23 39 -89 123 -97 123 -4 0 -11 11 -14 25 -4 14 -13 25 -21 25 -8
0 -17 11 -21 25 -3 13 -15 27 -25 30 -10 4 -19 10 -19 15 0 10 -19 33 -140
161 -44 47 -80 89 -80 93 0 5 -27 35 -60 67 -33 32 -60 63 -60 69 0 5 -7 10
-16 10 -9 0 -18 8 -21 19 -2 10 -16 24 -29 30 -13 6 -24 16 -24 22 0 6 -11 20
-25 31 -14 11 -25 26 -25 34 0 8 -11 19 -24 24 -13 5 -27 18 -31 29 -3 12 -13
21 -21 21 -8 0 -19 11 -25 24 -6 13 -20 27 -31 29 -11 3 -22 14 -25 25 -3 11
-16 23 -29 26 -13 4 -24 13 -24 21 0 7 -8 16 -18 19 -10 4 -28 20 -40 36 -13
17 -28 30 -36 30 -7 0 -23 11 -35 24 -13 13 -34 27 -47 30 -14 4 -26 16 -30
31 -3 13 -15 27 -25 30 -24 8 -25 50 -1 64 10 7 137 11 332 11 294 0 318 -1
352 -20z m685 -25 c138 -9 165 -13 183 -30 16 -15 42 -21 103 -26 64 -4 83
-10 96 -26 13 -15 34 -21 86 -26 51 -5 74 -12 85 -26 8 -10 31 -22 51 -25 21
-4 48 -15 60 -25 13 -10 39 -22 57 -26 18 -4 41 -15 50 -25 9 -9 34 -23 55
-29 20 -7 42 -21 47 -32 6 -10 19 -19 29 -19 18 0 70 -34 123 -82 17 -16 35
-28 40 -28 13 0 138 -125 138 -138 0 -5 9 -12 21 -15 11 -3 23 -14 26 -25 3
-11 14 -22 25 -25 11 -3 22 -15 25 -26 3 -11 14 -23 24 -26 10 -4 22 -17 25
-30 3 -13 14 -27 23 -30 17 -5 25 -17 74 -110 11 -22 28 -46 38 -52 9 -7 20
-28 23 -48 4 -19 15 -39 26 -45 11 -6 21 -26 25 -52 4 -24 16 -53 27 -65 11
-12 24 -43 29 -69 5 -26 16 -55 25 -65 10 -11 21 -52 27 -99 6 -44 14 -80 19
-80 16 0 27 -49 29 -131 3 -71 0 -83 -17 -96 -16 -13 -65 -14 -344 -8 -186 4
-330 11 -336 16 -7 6 -15 33 -19 62 -4 29 -15 66 -25 82 -10 17 -21 50 -25 75
-4 25 -17 61 -30 80 -13 19 -26 50 -30 68 -4 18 -13 32 -21 32 -7 0 -16 11
-20 24 -3 13 -17 33 -30 45 -13 11 -24 27 -24 34 0 7 -13 26 -30 42 -16 16
-30 33 -30 38 0 6 -9 19 -21 31 -61 62 -130 143 -135 159 -3 9 -9 17 -14 17
-5 0 -19 18 -30 40 -11 22 -27 40 -35 40 -8 0 -15 4 -15 10 0 9 -34 50 -85
100 -14 14 -25 31 -25 37 0 6 -9 14 -19 18 -11 3 -23 16 -27 28 -4 12 -31 47
-60 76 -30 30 -54 58 -54 62 0 11 -176 189 -187 189 -5 0 -36 25 -69 55 -32
30 -65 55 -72 55 -7 0 -18 11 -24 25 -6 14 -18 25 -27 25 -33 1 -71 48 -71 89
0 28 29 42 55 28 11 -7 93 -17 182 -22z m-2267 -1760 c11 -13 58 -15 316 -15
350 0 334 4 334 -89 0 -48 4 -61 21 -72 15 -10 22 -29 26 -64 3 -29 14 -59 25
-71 10 -12 23 -38 29 -58 6 -21 19 -46 29 -56 10 -10 21 -27 25 -39 3 -12 15
-26 26 -31 10 -6 19 -17 19 -25 0 -7 14 -29 30 -47 17 -18 30 -39 30 -48 0 -8
10 -20 23 -25 12 -6 23 -20 25 -31 2 -12 12 -24 23 -27 11 -3 23 -15 26 -26 3
-11 14 -23 24 -26 10 -4 19 -11 19 -16 0 -5 13 -24 30 -42 59 -63 90 -105 90
-121 0 -9 11 -21 25 -26 14 -5 25 -14 25 -19 0 -5 24 -34 53 -64 28 -31 63
-70 77 -87 25 -32 335 -344 377 -380 12 -10 31 -21 42 -25 11 -3 22 -14 26
-24 3 -9 20 -23 39 -29 41 -15 58 -34 50 -55 -12 -31 -59 -39 -203 -35 -125 3
-142 6 -163 24 -19 17 -40 23 -112 27 -66 4 -95 10 -115 24 -14 11 -51 23 -81
27 -31 4 -64 15 -75 26 -11 10 -45 23 -76 29 -32 7 -65 21 -74 31 -10 11 -31
20 -47 20 -17 0 -38 9 -51 23 -12 13 -35 27 -51 31 -16 4 -43 18 -59 32 -16
13 -35 24 -42 24 -8 0 -19 9 -25 20 -6 11 -17 20 -25 20 -8 0 -30 14 -48 30
-19 17 -39 30 -44 30 -5 0 -20 12 -35 28 -26 27 -42 42 -66 65 -8 6 -24 21
-35 33 -12 11 -30 23 -39 27 -10 3 -18 13 -18 21 0 7 -11 21 -25 30 -14 9 -25
21 -25 27 0 6 -12 23 -27 38 -57 57 -83 92 -83 111 0 11 -9 24 -20 30 -11 6
-23 22 -26 36 -4 14 -17 36 -30 49 -13 13 -24 35 -24 48 0 15 -10 31 -24 40
-15 10 -26 30 -31 54 -3 21 -15 47 -26 59 -10 11 -22 42 -25 70 -4 27 -15 59
-26 71 -14 15 -22 41 -26 89 -4 52 -10 72 -26 85 -29 24 -37 193 -11 233 20
29 37 33 55 11z m1639 -29 c32 -17 51 -54 51 -100 0 -18 9 -45 20 -59 12 -14
26 -40 31 -57 6 -17 20 -35 30 -41 10 -5 19 -16 19 -23 0 -7 14 -30 30 -51 17
-21 30 -43 30 -50 0 -7 11 -20 25 -29 14 -9 25 -22 25 -28 0 -6 9 -20 21 -32
39 -40 89 -108 89 -121 0 -8 9 -17 20 -20 11 -3 23 -17 26 -31 3 -13 12 -24
20 -24 7 0 19 -10 25 -22 7 -12 45 -55 85 -96 41 -41 74 -78 74 -82 0 -4 47
-55 105 -112 57 -58 109 -117 114 -131 6 -15 17 -27 26 -27 8 0 17 -11 21 -25
3 -14 11 -25 17 -25 5 0 34 -25 63 -55 30 -30 58 -55 63 -55 5 0 12 -9 16 -19
3 -11 15 -23 25 -26 11 -4 23 -17 26 -31 3 -13 13 -24 21 -24 8 0 27 -13 43
-29 16 -16 50 -42 76 -60 26 -17 53 -40 61 -51 8 -11 22 -20 32 -20 39 0 73
-86 46 -114 -15 -14 -52 -16 -329 -16 -294 0 -314 1 -330 19 -13 14 -35 20
-87 23 -57 3 -74 8 -87 25 -10 12 -34 23 -57 27 -22 3 -45 13 -51 21 -7 9 -28
21 -48 26 -20 5 -45 19 -56 31 -10 11 -27 26 -37 32 -11 6 -34 20 -53 31 -18
11 -47 32 -64 47 -17 15 -44 37 -59 50 -23 19 -137 132 -292 288 -14 14 -25
31 -25 37 0 6 -9 14 -19 18 -11 3 -23 14 -26 25 -3 10 -17 25 -30 34 -14 9
-25 21 -25 27 0 6 -6 16 -12 23 -7 7 -31 34 -53 61 -22 26 -52 61 -67 78 -16
16 -28 35 -28 42 0 6 -11 17 -25 23 -14 6 -25 18 -25 26 0 7 -11 21 -25 30
-14 9 -25 21 -25 27 0 11 -29 51 -82 111 -16 17 -28 37 -28 44 0 7 -9 15 -19
19 -11 3 -23 16 -27 28 -4 12 -17 32 -30 44 -13 12 -24 33 -24 46 0 13 -11 33
-24 44 -15 13 -27 37 -31 65 -4 23 -16 57 -26 74 -27 45 -26 118 3 138 32 23
804 24 847 2z m1005 -33 c21 -27 36 -57 36 -73 0 -15 9 -39 20 -53 12 -14 26
-40 31 -57 6 -17 20 -35 30 -41 10 -5 19 -15 19 -22 0 -7 22 -38 50 -68 27
-29 54 -66 61 -81 6 -14 20 -28 31 -31 11 -3 22 -14 25 -25 3 -11 14 -22 25
-25 11 -3 22 -14 25 -25 3 -11 14 -22 25 -25 11 -3 22 -15 25 -26 3 -11 14
-23 25 -27 10 -3 24 -17 30 -30 6 -13 18 -24 26 -24 15 0 100 -76 263 -235 43
-41 80 -75 84 -75 10 0 145 -140 145 -150 0 -5 10 -10 23 -12 12 -2 26 -13 32
-25 5 -12 18 -24 28 -27 10 -2 21 -14 24 -25 3 -12 10 -21 16 -21 13 0 24 -10
199 -183 76 -75 140 -147 144 -161 3 -14 15 -28 25 -31 10 -4 19 -11 19 -17 0
-6 11 -26 26 -45 14 -18 30 -47 36 -65 6 -17 19 -39 30 -50 24 -24 26 -113 2
-122 -27 -10 -106 15 -112 36 -2 10 -12 18 -22 18 -10 0 -31 11 -47 23 -15 13
-43 27 -61 30 -19 4 -46 16 -62 27 -16 11 -52 22 -86 26 -35 3 -71 14 -89 27
-23 16 -50 22 -133 26 -90 5 -106 9 -121 27 -13 16 -31 22 -81 26 -47 3 -67 9
-79 25 -10 11 -34 22 -58 25 -23 3 -54 15 -68 26 -14 11 -40 24 -56 27 -17 4
-33 13 -36 21 -3 8 -25 23 -49 33 -24 11 -47 27 -50 35 -3 9 -15 16 -25 16
-10 0 -26 11 -35 25 -9 14 -23 25 -30 25 -8 0 -19 11 -25 24 -7 14 -21 27 -33
30 -27 7 -221 205 -231 235 -3 11 -13 21 -21 21 -8 0 -20 11 -26 25 -6 14 -14
25 -18 25 -11 0 -100 89 -100 100 0 6 -7 10 -15 10 -8 0 -20 10 -26 23 -7 12
-20 28 -31 35 -10 7 -18 20 -18 28 0 8 -11 19 -25 24 -14 5 -25 16 -25 25 0 9
-11 20 -25 25 -14 5 -25 16 -25 25 0 8 -11 22 -25 31 -14 9 -25 22 -25 29 0 6
-9 16 -19 21 -23 10 -64 64 -86 111 -8 18 -24 37 -35 43 -11 6 -20 19 -20 29
0 12 -10 21 -25 25 -14 4 -25 11 -25 17 0 6 -12 26 -27 43 -58 68 -74 92 -80
118 -3 15 -14 30 -24 33 -10 3 -21 16 -25 28 -4 12 -17 35 -30 50 -20 23 -24
40 -24 92 0 41 4 65 13 68 6 3 186 6 398 6 l386 1 37 -47z m918 37 c20 -6 39
-17 42 -25 3 -8 15 -15 26 -15 26 0 80 -27 80 -40 0 -6 7 -10 15 -10 9 0 26
-10 39 -23 12 -12 32 -27 43 -32 33 -15 121 -95 294 -267 87 -87 163 -158 169
-158 6 0 16 -11 22 -25 6 -14 17 -25 25 -25 7 0 18 -11 24 -24 6 -13 20 -27
31 -29 11 -3 22 -14 25 -25 2 -11 16 -25 29 -31 13 -6 24 -17 24 -24 0 -8 11
-19 25 -25 14 -6 25 -18 25 -25 0 -8 11 -19 24 -25 13 -6 27 -20 31 -31 3 -12
13 -21 20 -21 8 0 20 -10 26 -22 7 -13 33 -44 58 -70 67 -69 119 -131 186
-223 9 -11 26 -33 39 -50 13 -16 30 -44 39 -61 9 -17 23 -34 32 -37 8 -4 15
-18 15 -33 0 -17 6 -28 20 -31 11 -3 24 -20 31 -42 6 -20 20 -45 30 -56 10
-11 22 -39 27 -61 5 -23 19 -51 31 -63 15 -15 21 -34 21 -63 0 -24 5 -61 10
-83 7 -32 6 -47 -9 -75 -22 -43 -53 -60 -110 -60 -32 0 -51 -6 -68 -22 -19
-17 -42 -23 -135 -31 -78 -6 -116 -14 -121 -23 -6 -11 -36 -14 -127 -14 l-118
0 -26 31 c-14 17 -26 35 -26 41 0 6 -7 16 -15 22 -8 6 -19 32 -23 57 -5 25
-19 56 -30 67 -12 12 -22 33 -22 46 0 14 -11 37 -25 52 -14 15 -25 35 -25 46
0 10 -11 29 -25 42 -14 13 -25 28 -25 33 0 5 -11 20 -24 32 -14 13 -30 36 -36
52 -7 15 -23 35 -36 44 -13 8 -24 22 -24 29 0 8 -9 16 -21 19 -11 3 -23 15
-26 26 -3 12 -10 21 -15 21 -13 0 -148 136 -148 150 0 5 -8 10 -17 10 -9 0
-56 37 -104 83 -48 45 -122 115 -166 154 -161 149 -223 210 -223 222 0 6 -9
11 -20 11 -12 0 -25 10 -32 25 -6 14 -16 25 -21 25 -6 0 -34 25 -63 55 -30 30
-58 55 -63 55 -11 0 -150 141 -165 167 -5 10 -31 39 -58 65 -26 25 -48 53 -48
61 0 9 -9 18 -19 22 -11 3 -24 20 -30 37 -6 18 -20 42 -31 54 -12 12 -23 41
-26 71 -11 86 -26 83 379 83 207 0 367 -4 389 -10z m493 0 c30 0 50 -6 62 -19
15 -15 39 -19 135 -24 96 -4 124 -9 152 -26 18 -12 49 -21 67 -21 52 -1 112
-17 125 -34 6 -9 37 -19 74 -25 46 -6 68 -14 81 -30 12 -14 28 -21 54 -21 26
0 43 -7 59 -25 15 -16 34 -25 54 -25 18 0 43 -10 60 -25 17 -14 37 -25 45 -25
9 0 28 -10 44 -23 15 -13 42 -29 60 -36 17 -7 34 -19 37 -27 3 -8 19 -20 35
-25 17 -6 33 -19 36 -30 4 -10 15 -19 25 -19 11 0 27 -11 36 -25 9 -13 23 -27
32 -30 14 -4 64 -46 145 -123 4 -4 27 -32 51 -64 23 -31 50 -64 59 -73 9 -9
17 -22 17 -30 0 -7 11 -20 25 -29 14 -9 25 -21 25 -27 0 -6 11 -24 25 -41 14
-16 25 -40 25 -52 0 -14 9 -27 24 -34 15 -7 26 -22 30 -45 3 -19 15 -42 26
-52 11 -10 22 -33 26 -51 3 -19 15 -46 26 -59 22 -28 34 -90 24 -128 -3 -13
-17 -36 -31 -51 -14 -15 -25 -33 -25 -41 0 -7 -9 -17 -21 -20 -11 -4 -24 -18
-29 -31 -5 -13 -16 -24 -25 -24 -9 0 -20 -11 -25 -25 -5 -14 -16 -25 -25 -25
-8 0 -21 -11 -27 -25 -6 -14 -17 -25 -23 -25 -7 0 -26 -13 -43 -30 -18 -16
-38 -30 -47 -30 -8 0 -19 -9 -25 -20 -6 -11 -23 -23 -37 -26 -15 -4 -36 -17
-47 -30 -12 -13 -45 -29 -79 -38 -76 -19 -95 -5 -104 74 -3 31 -13 64 -23 75
-10 11 -21 34 -25 52 -3 18 -15 43 -25 55 -10 13 -23 44 -30 68 -7 25 -21 50
-31 58 -10 7 -19 19 -19 26 0 7 -11 23 -24 36 -14 12 -28 35 -31 51 -4 16 -15
34 -26 39 -10 6 -19 17 -19 25 0 8 -11 22 -25 31 -14 9 -25 20 -25 25 0 14
-97 142 -137 181 -13 12 -23 27 -23 33 0 7 -11 17 -25 23 -14 6 -25 16 -25 22
0 6 -30 40 -67 75 -38 35 -72 69 -78 75 -55 58 -337 340 -341 340 -10 0 -194
189 -194 199 0 6 -6 11 -13 11 -7 0 -25 12 -39 28 -15 15 -35 34 -45 43 -50
45 -65 86 -40 107 13 11 65 21 85 15 8 -1 33 -3 57 -3z m1889 -1532 c8 -14 16
-64 20 -122 4 -75 10 -104 23 -119 16 -17 18 -47 18 -341 l0 -321 -35 -42
c-19 -24 -51 -49 -71 -57 -20 -8 -39 -21 -42 -29 -3 -9 -21 -18 -39 -22 -18
-4 -45 -18 -60 -30 -14 -12 -45 -25 -67 -29 -23 -3 -41 -10 -41 -15 0 -18 -53
-30 -166 -37 -73 -4 -127 -12 -139 -20 -27 -19 -109 -18 -125 1 -8 10 -31 15
-64 16 -93 1 -165 15 -193 35 -16 12 -48 23 -73 27 -26 3 -51 14 -60 25 -9 10
-33 22 -54 26 -25 5 -40 14 -43 26 -3 10 -17 20 -31 23 -15 4 -40 18 -56 32
-16 14 -32 25 -35 25 -12 0 -88 75 -94 93 -4 9 -13 17 -21 17 -8 0 -18 9 -21
20 -3 11 -15 25 -26 30 -10 6 -28 28 -38 49 -11 20 -27 43 -35 50 -19 16 -22
101 -4 119 7 7 33 12 60 12 37 0 50 -4 58 -20 14 -26 50 -26 83 0 21 17 47 21
173 27 124 5 154 10 188 28 23 12 67 25 98 29 35 5 62 14 73 26 10 11 37 22
61 26 23 3 58 17 75 30 18 13 46 24 62 24 19 0 36 9 49 25 11 14 30 25 42 25
12 0 33 11 46 25 13 14 30 25 38 25 8 0 30 14 49 30 18 17 40 30 47 30 7 0 21
10 32 21 10 12 29 25 42 30 12 5 22 15 22 24 0 8 11 17 25 21 14 3 25 12 25
20 0 7 10 19 23 25 12 7 25 17 29 22 3 6 21 28 40 48 28 33 39 38 75 39 34 0
46 -5 57 -22z m-2819 -288 l27 -10 -4 -198 c-3 -175 -5 -201 -22 -227 -13 -20
-22 -57 -27 -120 -6 -71 -11 -93 -27 -105 -13 -11 -22 -35 -26 -73 -5 -37 -14
-61 -25 -69 -11 -8 -21 -33 -25 -61 -4 -26 -15 -55 -25 -65 -10 -9 -22 -31
-25 -48 -4 -17 -18 -46 -32 -65 -13 -18 -24 -41 -24 -51 0 -22 -54 -84 -78
-90 -34 -9 -58 9 -71 53 -7 24 -19 48 -27 54 -8 5 -17 28 -21 50 -3 22 -16 58
-28 80 -14 25 -25 65 -28 105 -4 46 -11 68 -23 77 -15 11 -19 33 -24 116 -4
77 -11 109 -25 131 -18 27 -21 55 -26 255 -3 124 -4 233 -2 243 3 9 12 19 22
21 35 10 541 7 566 -3z m530 -10 c8 -7 14 -79 18 -245 6 -191 10 -240 23 -260
11 -16 19 -65 25 -141 8 -90 14 -120 26 -129 35 -26 35 -293 1 -319 -8 -6 -19
-45 -25 -86 -7 -45 -18 -79 -27 -86 -9 -6 -18 -26 -22 -45 -11 -67 -14 -76
-34 -99 -11 -13 -20 -32 -20 -42 0 -24 -27 -78 -39 -78 -5 0 -13 -15 -17 -32
-3 -18 -17 -45 -30 -60 -12 -16 -25 -37 -29 -48 -3 -11 -12 -20 -20 -20 -7 0
-18 -13 -24 -30 -5 -17 -16 -30 -24 -30 -8 0 -19 -11 -25 -25 -10 -22 -18 -25
-67 -25 -46 0 -59 4 -77 25 -12 14 -27 25 -35 25 -13 0 -43 25 -110 88 -18 17
-38 32 -43 32 -5 0 -11 8 -15 18 -3 11 -17 24 -30 30 -14 6 -25 16 -25 22 0
10 -58 93 -87 123 -32 33 -43 93 -27 140 8 22 23 46 33 53 10 8 22 26 26 41 3
16 15 37 25 48 10 11 23 38 29 60 6 22 20 46 31 53 13 8 20 23 20 41 0 17 11
42 25 59 16 19 25 42 25 65 0 19 9 45 20 60 11 14 25 52 31 84 6 32 18 66 26
75 9 10 19 53 25 105 6 53 18 100 29 119 16 27 20 60 25 215 4 101 11 192 16
201 4 10 23 22 41 28 40 12 315 4 332 -10z m259 -65 c14 -15 34 -25 50 -25 15
0 38 -11 52 -25 14 -14 29 -25 34 -25 22 0 138 -126 144 -156 4 -18 16 -40 26
-49 10 -9 22 -30 25 -45 3 -16 13 -31 21 -34 7 -3 21 -23 30 -46 9 -22 22 -40
30 -40 7 0 16 -11 20 -25 3 -13 15 -27 25 -30 10 -4 19 -10 19 -15 0 -13 75
-90 88 -90 7 0 17 -11 22 -25 5 -14 16 -25 25 -25 8 0 22 -11 31 -25 9 -14 24
-25 33 -25 10 0 28 -11 41 -25 13 -14 31 -25 40 -25 10 0 29 -9 43 -20 14 -12
41 -26 59 -32 18 -6 45 -20 59 -30 14 -11 46 -22 70 -25 24 -3 54 -15 66 -26
19 -17 44 -21 155 -29 73 -4 210 -6 303 -2 152 5 174 8 210 29 22 12 61 25 87
29 32 5 51 14 58 26 13 24 93 38 115 20 23 -19 20 -111 -5 -143 -11 -14 -24
-46 -29 -72 -5 -25 -18 -56 -29 -68 -10 -12 -23 -35 -26 -51 -4 -16 -18 -43
-32 -59 -13 -16 -24 -35 -24 -42 0 -7 -11 -27 -25 -43 -14 -17 -25 -35 -25
-41 0 -6 -11 -18 -25 -27 -14 -9 -25 -22 -25 -28 0 -7 -10 -22 -22 -33 -13
-12 -41 -42 -63 -67 -22 -25 -45 -46 -51 -46 -6 0 -16 -11 -22 -25 -6 -14 -18
-25 -26 -25 -7 0 -16 -7 -20 -15 -3 -8 -18 -21 -33 -28 -15 -6 -35 -20 -44
-31 -12 -15 -33 -19 -110 -23 -115 -6 -264 9 -287 30 -10 8 -49 17 -97 21 -56
4 -88 12 -107 26 -15 11 -46 23 -69 26 -23 4 -50 15 -60 25 -11 11 -37 23 -60
28 -22 5 -47 18 -55 29 -7 11 -26 22 -41 25 -16 3 -41 17 -56 31 -16 14 -35
26 -42 26 -8 0 -20 9 -27 20 -7 11 -18 20 -24 20 -12 0 -72 45 -127 95 -15 14
-32 25 -37 25 -5 0 -11 9 -15 19 -3 11 -15 23 -26 26 -11 4 -24 18 -29 31 -5
13 -16 24 -25 24 -8 0 -17 11 -21 24 -3 13 -17 34 -30 47 -13 12 -24 31 -24
41 0 11 -11 29 -24 41 -13 12 -27 38 -31 57 -4 19 -16 44 -26 56 -10 11 -24
47 -30 80 -6 32 -18 67 -26 76 -10 12 -19 52 -25 119 -6 65 -15 111 -26 127
-14 22 -17 60 -20 255 -2 166 0 232 9 243 20 24 86 18 113 -11z m8 -1132 c10
-9 18 -22 18 -30 0 -7 6 -13 14 -13 8 0 17 -8 21 -19 6 -19 119 -141 130 -141
4 0 28 -22 54 -49 25 -26 57 -51 69 -55 12 -4 22 -12 22 -17 0 -5 20 -18 44
-28 24 -11 46 -26 49 -34 3 -8 18 -18 33 -21 15 -4 41 -18 57 -32 16 -13 37
-24 47 -24 11 0 23 -6 27 -14 11 -19 47 -36 77 -36 13 0 38 -11 54 -25 19 -16
42 -25 64 -25 19 0 55 -11 79 -23 30 -16 70 -26 122 -30 43 -4 87 -12 97 -17
28 -15 25 -50 -7 -88 -24 -29 -36 -34 -88 -39 -40 -4 -67 -12 -82 -26 -17 -15
-43 -22 -100 -27 -46 -4 -92 -15 -113 -26 -32 -18 -59 -19 -365 -19 -308 0
-333 1 -360 19 -18 12 -57 22 -102 26 -55 6 -80 13 -97 29 -12 11 -33 21 -47
21 -35 0 -99 19 -99 30 0 5 -12 22 -26 39 l-26 31 24 31 c13 17 33 41 46 53
12 13 22 28 22 34 0 7 11 19 24 27 13 9 26 28 29 43 3 15 15 38 26 50 11 13
23 36 26 52 3 15 15 36 25 45 11 10 22 37 26 60 4 27 15 51 30 64 19 17 24 31
24 70 0 39 5 56 25 77 14 15 25 32 25 38 0 35 51 47 82 19z"/>
</g>
</svg>
